<svg xmlns="http://www.w3.org/2000/svg" version="1.1" xmlns:xlink="http://www.w3.org/1999/xlink" xmlns:svgjs="http://svgjs.com/svgjs" width="1440" height="560" preserveAspectRatio="none" viewBox="0 0 1440 560"><g mask="url(&quot;#SvgjsMask1000&quot;)" fill="none"><rect width="1440" height="560" x="0" y="0" fill="#0e2a47"></rect><path d="M-61.63 390.34L-61.63 390.34" stroke="#132e65" stroke-width="1.5"></path><path d="M-61.63 390.34L37.97 384.97" stroke="#132e65" stroke-width="1.5"></path><path d="M-61.63 390.34L66.64 524.89" stroke="#132e65" stroke-width="1.5"></path><path d="M-61.63 390.34L188.88 551.5" stroke="#132e65" stroke-width="1.5"></path><path d="M-61.63 390.34L-39.88 688.74" stroke="#132e65" stroke-width="1.5"></path><path d="M-39.88 688.74L-39.88 688.74" stroke="#132e65" stroke-width="1.5"></path><path d="M-39.88 688.74L94.01 701.25" stroke="#132e65" stroke-width="1.5"></path><path d="M-39.88 688.74L66.64 524.89" stroke="#132e65" stroke-width="1.5"></path><path d="M-39.88 688.74L221.14 701.2" stroke="#132e65" stroke-width="1.5"></path><path d="M-39.88 688.74L188.88 551.5" stroke="#132e65" stroke-width="1.5"></path><path d="M37.97 384.97L37.97 384.97" stroke="#132e65" stroke-width="1.5"></path><path d="M37.97 384.97L66.64 524.89" stroke="#132e65" stroke-width="1.5"></path><path d="M37.97 384.97L247.82 368.08" stroke="#132e65" stroke-width="1.5"></path><path d="M37.97 384.97L188.88 551.5" stroke="#132e65" stroke-width="1.5"></path><path d="M37.97 384.97L-39.88 688.74" stroke="#132e65" stroke-width="1.5"></path><path d="M37.97 384.97L94.01 701.25" stroke="#132e65" stroke-width="1.5"></path><path d="M66.64 524.89L66.64 524.89" stroke="#132e65" stroke-width="1.5"></path><path d="M66.64 524.89L188.88 551.5" stroke="#132e65" stroke-width="1.5"></path><path d="M94.01 701.25L94.01 701.25" stroke="#132e65" stroke-width="1.5"></path><path d="M94.01 701.25L221.14 701.2" stroke="#132e65" stroke-width="1.5"></path><path d="M94.01 701.25L188.88 551.5" stroke="#132e65" stroke-width="1.5"></path><path d="M247.82 368.08L247.82 368.08" stroke="#132e65" stroke-width="1.5"></path><path d="M247.82 368.08L392.92 366.92" stroke="#132e65" stroke-width="1.5"></path><path d="M247.82 368.08L188.88 551.5" stroke="#132e65" stroke-width="1.5"></path><path d="M188.88 551.5L188.88 551.5" stroke="#132e65" stroke-width="1.5"></path><path d="M188.88 551.5L221.14 701.2" stroke="#132e65" stroke-width="1.5"></path><path d="M188.88 551.5L343.42 543.02" stroke="#132e65" stroke-width="1.5"></path><path d="M221.14 701.2L221.14 701.2" stroke="#132e65" stroke-width="1.5"></path><path d="M392.92 366.92L392.92 366.92" stroke="#132e65" stroke-width="1.5"></path><path d="M392.92 366.92L547.27 349.47" stroke="#132e65" stroke-width="1.5"></path><path d="M392.92 366.92L343.42 543.02" stroke="#132e65" stroke-width="1.5"></path><path d="M392.92 366.92L498.16 517.43" stroke="#132e65" stroke-width="1.5"></path><path d="M392.92 366.92L648.33 384.35" stroke="#132e65" stroke-width="1.5"></path><path d="M392.92 366.92L188.88 551.5" stroke="#132e65" stroke-width="1.5"></path><path d="M343.42 543.02L343.42 543.02" stroke="#132e65" stroke-width="1.5"></path><path d="M343.42 543.02L390.41 683.19" stroke="#132e65" stroke-width="1.5"></path><path d="M343.42 543.02L498.16 517.43" stroke="#132e65" stroke-width="1.5"></path><path d="M390.41 683.19L390.41 683.19" stroke="#132e65" stroke-width="1.5"></path><path d="M390.41 683.19L554.42 695.7" stroke="#132e65" stroke-width="1.5"></path><path d="M390.41 683.19L221.14 701.2" stroke="#132e65" stroke-width="1.5"></path><path d="M547.27 349.47L547.27 349.47" stroke="#132e65" stroke-width="1.5"></path><path d="M547.27 349.47L648.33 384.35" stroke="#132e65" stroke-width="1.5"></path><path d="M547.27 349.47L498.16 517.43" stroke="#132e65" stroke-width="1.5"></path><path d="M498.16 517.43L498.16 517.43" stroke="#132e65" stroke-width="1.5"></path><path d="M498.16 517.43L554.42 695.7" stroke="#132e65" stroke-width="1.5"></path><path d="M498.16 517.43L390.41 683.19" stroke="#132e65" stroke-width="1.5"></path><path d="M554.42 695.7L554.42 695.7" stroke="#132e65" stroke-width="1.5"></path><path d="M554.42 695.7L655.6 643.09" stroke="#132e65" stroke-width="1.5"></path><path d="M648.33 384.35L648.33 384.35" stroke="#132e65" stroke-width="1.5"></path><path d="M648.33 384.35L700.21 504.78" stroke="#132e65" stroke-width="1.5"></path><path d="M648.33 384.35L792.47 487.88" stroke="#132e65" stroke-width="1.5"></path><path d="M648.33 384.35L498.16 517.43" stroke="#132e65" stroke-width="1.5"></path><path d="M700.21 504.78L700.21 504.78" stroke="#132e65" stroke-width="1.5"></path><path d="M700.21 504.78L792.47 487.88" stroke="#132e65" stroke-width="1.5"></path><path d="M655.6 643.09L655.6 643.09" stroke="#132e65" stroke-width="1.5"></path><path d="M655.6 643.09L796.08 641.11" stroke="#132e65" stroke-width="1.5"></path><path d="M655.6 643.09L700.21 504.78" stroke="#132e65" stroke-width="1.5"></path><path d="M655.6 643.09L498.16 517.43" stroke="#132e65" stroke-width="1.5"></path><path d="M815.33 248.09L815.33 248.09" stroke="#132e65" stroke-width="1.5"></path><path d="M815.33 248.09L849.99 360.91" stroke="#132e65" stroke-width="1.5"></path><path d="M815.33 248.09L941.13 210.05" stroke="#132e65" stroke-width="1.5"></path><path d="M849.99 360.91L849.99 360.91" stroke="#132e65" stroke-width="1.5"></path><path d="M849.99 360.91L982.66 356.32" stroke="#132e65" stroke-width="1.5"></path><path d="M849.99 360.91L792.47 487.88" stroke="#132e65" stroke-width="1.5"></path><path d="M849.99 360.91L941.13 210.05" stroke="#132e65" stroke-width="1.5"></path><path d="M849.99 360.91L648.33 384.35" stroke="#132e65" stroke-width="1.5"></path><path d="M849.99 360.91L970.89 525.37" stroke="#132e65" stroke-width="1.5"></path><path d="M792.47 487.88L792.47 487.88" stroke="#132e65" stroke-width="1.5"></path><path d="M796.08 641.11L796.08 641.11" stroke="#132e65" stroke-width="1.5"></path><path d="M796.08 641.11L792.47 487.88" stroke="#132e65" stroke-width="1.5"></path><path d="M1007.85 -107.36L1007.85 -107.36" stroke="#132e65" stroke-width="1.5"></path><path d="M1007.85 -107.36L1143.02 -94.3" stroke="#132e65" stroke-width="1.5"></path><path d="M1007.85 -107.36L976.52 54.76" stroke="#132e65" stroke-width="1.5"></path><path d="M1007.85 -107.36L1134 97.04" stroke="#132e65" stroke-width="1.5"></path><path d="M976.52 54.76L976.52 54.76" stroke="#132e65" stroke-width="1.5"></path><path d="M976.52 54.76L941.13 210.05" stroke="#132e65" stroke-width="1.5"></path><path d="M976.52 54.76L1134 97.04" stroke="#132e65" stroke-width="1.5"></path><path d="M941.13 210.05L941.13 210.05" stroke="#132e65" stroke-width="1.5"></path><path d="M941.13 210.05L982.66 356.32" stroke="#132e65" stroke-width="1.5"></path><path d="M941.13 210.05L1095.43 255.96" stroke="#132e65" stroke-width="1.5"></path><path d="M982.66 356.32L982.66 356.32" stroke="#132e65" stroke-width="1.5"></path><path d="M982.66 356.32L1103.83 395.27" stroke="#132e65" stroke-width="1.5"></path><path d="M982.66 356.32L1095.43 255.96" stroke="#132e65" stroke-width="1.5"></path><path d="M970.89 525.37L970.89 525.37" stroke="#132e65" stroke-width="1.5"></path><path d="M970.89 525.37L978.23 640.94" stroke="#132e65" stroke-width="1.5"></path><path d="M970.89 525.37L982.66 356.32" stroke="#132e65" stroke-width="1.5"></path><path d="M970.89 525.37L792.47 487.88" stroke="#132e65" stroke-width="1.5"></path><path d="M970.89 525.37L1103.83 395.27" stroke="#132e65" stroke-width="1.5"></path><path d="M978.23 640.94L978.23 640.94" stroke="#132e65" stroke-width="1.5"></path><path d="M978.23 640.94L1147.33 706.92" stroke="#132e65" stroke-width="1.5"></path><path d="M978.23 640.94L796.08 641.11" stroke="#132e65" stroke-width="1.5"></path><path d="M978.23 640.94L792.47 487.88" stroke="#132e65" stroke-width="1.5"></path><path d="M978.23 640.94L1103.83 395.27" stroke="#132e65" stroke-width="1.5"></path><path d="M1143.02 -94.3L1143.02 -94.3" stroke="#132e65" stroke-width="1.5"></path><path d="M1143.02 -94.3L1249.83 -54.96" stroke="#132e65" stroke-width="1.5"></path><path d="M1143.02 -94.3L1134 97.04" stroke="#132e65" stroke-width="1.5"></path><path d="M1134 97.04L1134 97.04" stroke="#132e65" stroke-width="1.5"></path><path d="M1134 97.04L1283.86 42.31" stroke="#132e65" stroke-width="1.5"></path><path d="M1134 97.04L1095.43 255.96" stroke="#132e65" stroke-width="1.5"></path><path d="M1134 97.04L1290.26 197.12" stroke="#132e65" stroke-width="1.5"></path><path d="M1134 97.04L1249.83 -54.96" stroke="#132e65" stroke-width="1.5"></path><path d="M1095.43 255.96L1095.43 255.96" stroke="#132e65" stroke-width="1.5"></path><path d="M1095.43 255.96L1103.83 395.27" stroke="#132e65" stroke-width="1.5"></path><path d="M1095.43 255.96L1242.53 355.28" stroke="#132e65" stroke-width="1.5"></path><path d="M1103.83 395.27L1103.83 395.27" stroke="#132e65" stroke-width="1.5"></path><path d="M1103.83 395.27L1242.53 355.28" stroke="#132e65" stroke-width="1.5"></path><path d="M1103.83 395.27L1244.06 487.54" stroke="#132e65" stroke-width="1.5"></path><path d="M1147.33 706.92L1147.33 706.92" stroke="#132e65" stroke-width="1.5"></path><path d="M1147.33 706.92L1278.67 647.4" stroke="#132e65" stroke-width="1.5"></path><path d="M1147.33 706.92L1244.06 487.54" stroke="#132e65" stroke-width="1.5"></path><path d="M1147.33 706.92L970.89 525.37" stroke="#132e65" stroke-width="1.5"></path><path d="M1147.33 706.92L1103.83 395.27" stroke="#132e65" stroke-width="1.5"></path><path d="M1147.33 706.92L1443.9 534.39" stroke="#132e65" stroke-width="1.5"></path><path d="M1249.83 -54.96L1249.83 -54.96" stroke="#132e65" stroke-width="1.5"></path><path d="M1249.83 -54.96L1283.86 42.31" stroke="#132e65" stroke-width="1.5"></path><path d="M1249.83 -54.96L1411.34 -97.7" stroke="#132e65" stroke-width="1.5"></path><path d="M1249.83 -54.96L1007.85 -107.36" stroke="#132e65" stroke-width="1.5"></path><path d="M1283.86 42.31L1283.86 42.31" stroke="#132e65" stroke-width="1.5"></path><path d="M1283.86 42.31L1290.26 197.12" stroke="#132e65" stroke-width="1.5"></path><path d="M1283.86 42.31L1450.68 100.83" stroke="#132e65" stroke-width="1.5"></path><path d="M1283.86 42.31L1411.34 -97.7" stroke="#132e65" stroke-width="1.5"></path><path d="M1283.86 42.31L1143.02 -94.3" stroke="#132e65" stroke-width="1.5"></path><path d="M1290.26 197.12L1290.26 197.12" stroke="#132e65" stroke-width="1.5"></path><path d="M1290.26 197.12L1448.18 216.06" stroke="#132e65" stroke-width="1.5"></path><path d="M1290.26 197.12L1242.53 355.28" stroke="#132e65" stroke-width="1.5"></path><path d="M1290.26 197.12L1450.68 100.83" stroke="#132e65" stroke-width="1.5"></path><path d="M1242.53 355.28L1242.53 355.28" stroke="#132e65" stroke-width="1.5"></path><path d="M1242.53 355.28L1244.06 487.54" stroke="#132e65" stroke-width="1.5"></path><path d="M1242.53 355.28L1413.89 402.02" stroke="#132e65" stroke-width="1.5"></path><path d="M1244.06 487.54L1244.06 487.54" stroke="#132e65" stroke-width="1.5"></path><path d="M1244.06 487.54L1278.67 647.4" stroke="#132e65" stroke-width="1.5"></path><path d="M1278.67 647.4L1278.67 647.4" stroke="#132e65" stroke-width="1.5"></path><path d="M1278.67 647.4L1443.9 534.39" stroke="#132e65" stroke-width="1.5"></path><path d="M1278.67 647.4L1413.89 402.02" stroke="#132e65" stroke-width="1.5"></path><path d="M1278.67 647.4L1242.53 355.28" stroke="#132e65" stroke-width="1.5"></path><path d="M1278.67 647.4L978.23 640.94" stroke="#132e65" stroke-width="1.5"></path><path d="M1411.34 -97.7L1411.34 -97.7" stroke="#132e65" stroke-width="1.5"></path><path d="M1411.34 -97.7L1571.9 -55.99" stroke="#132e65" stroke-width="1.5"></path><path d="M1411.34 -97.7L1450.68 100.83" stroke="#132e65" stroke-width="1.5"></path><path d="M1450.68 100.83L1450.68 100.83" stroke="#132e65" stroke-width="1.5"></path><path d="M1450.68 100.83L1546.63 82.96" stroke="#132e65" stroke-width="1.5"></path><path d="M1450.68 100.83L1448.18 216.06" stroke="#132e65" stroke-width="1.5"></path><path d="M1450.68 100.83L1571.9 -55.99" stroke="#132e65" stroke-width="1.5"></path><path d="M1448.18 216.06L1448.18 216.06" stroke="#132e65" stroke-width="1.5"></path><path d="M1448.18 216.06L1607.74 249.37" stroke="#132e65" stroke-width="1.5"></path><path d="M1448.18 216.06L1546.63 82.96" stroke="#132e65" stroke-width="1.5"></path><path d="M1448.18 216.06L1413.89 402.02" stroke="#132e65" stroke-width="1.5"></path><path d="M1448.18 216.06L1549.62 392.91" stroke="#132e65" stroke-width="1.5"></path><path d="M1413.89 402.02L1413.89 402.02" stroke="#132e65" stroke-width="1.5"></path><path d="M1413.89 402.02L1443.9 534.39" stroke="#132e65" stroke-width="1.5"></path><path d="M1443.9 534.39L1443.9 534.39" stroke="#132e65" stroke-width="1.5"></path><path d="M1443.9 534.39L1569.64 558.17" stroke="#132e65" stroke-width="1.5"></path><path d="M1443.9 534.39L1549.62 392.91" stroke="#132e65" stroke-width="1.5"></path><path d="M1443.9 534.39L1244.06 487.54" stroke="#132e65" stroke-width="1.5"></path><path d="M1571.9 -55.99L1571.9 -55.99" stroke="#132e65" stroke-width="1.5"></path><path d="M1571.9 -55.99L1546.63 82.96" stroke="#132e65" stroke-width="1.5"></path><path d="M1546.63 82.96L1546.63 82.96" stroke="#132e65" stroke-width="1.5"></path><path d="M1607.74 249.37L1607.74 249.37" stroke="#132e65" stroke-width="1.5"></path><path d="M1607.74 249.37L1549.62 392.91" stroke="#132e65" stroke-width="1.5"></path><path d="M1607.74 249.37L1546.63 82.96" stroke="#132e65" stroke-width="1.5"></path><path d="M1549.62 392.91L1549.62 392.91" stroke="#132e65" stroke-width="1.5"></path><path d="M1549.62 392.91L1413.89 402.02" stroke="#132e65" stroke-width="1.5"></path><path d="M1549.62 392.91L1569.64 558.17" stroke="#132e65" stroke-width="1.5"></path><path d="M1569.64 558.17L1569.64 558.17" stroke="#132e65" stroke-width="1.5"></path><path d="M1569.64 558.17L1581.65 704.37" stroke="#132e65" stroke-width="1.5"></path><path d="M1569.64 558.17L1413.89 402.02" stroke="#132e65" stroke-width="1.5"></path><path d="M1569.64 558.17L1278.67 647.4" stroke="#132e65" stroke-width="1.5"></path><path d="M1581.65 704.37L1581.65 704.37" stroke="#132e65" stroke-width="1.5"></path><path d="M1581.65 704.37L1443.9 534.39" stroke="#132e65" stroke-width="1.5"></path><path d="M1581.65 704.37L1278.67 647.4" stroke="#132e65" stroke-width="1.5"></path><circle r="5" cx="-61.63" cy="390.34" fill="#132e65"></circle><circle r="5" cx="-39.88" cy="688.74" fill="#132e65"></circle><circle r="5" cx="37.97" cy="384.97" fill="#132e65"></circle><circle r="5" cx="66.64" cy="524.89" fill="#132e65"></circle><circle r="5" cx="94.01" cy="701.25" fill="#132e65"></circle><circle r="5" cx="247.82" cy="368.08" fill="#132e65"></circle><circle r="5" cx="188.88" cy="551.5" fill="#132e65"></circle><circle r="5" cx="221.14" cy="701.2" fill="#132e65"></circle><circle r="5" cx="392.92" cy="366.92" fill="#132e65"></circle><circle r="5" cx="343.42" cy="543.02" fill="#132e65"></circle><circle r="5" cx="390.41" cy="683.19" fill="#132e65"></circle><circle r="5" cx="547.27" cy="349.47" fill="#132e65"></circle><circle r="5" cx="498.16" cy="517.43" fill="#132e65"></circle><circle r="5" cx="554.42" cy="695.7" fill="#132e65"></circle><circle r="5" cx="648.33" cy="384.35" fill="#132e65"></circle><circle r="5" cx="700.21" cy="504.78" fill="#132e65"></circle><circle r="5" cx="655.6" cy="643.09" fill="#132e65"></circle><circle r="5" cx="815.33" cy="248.09" fill="#132e65"></circle><circle r="5" cx="849.99" cy="360.91" fill="#132e65"></circle><circle r="5" cx="792.47" cy="487.88" fill="#132e65"></circle><circle r="5" cx="796.08" cy="641.11" fill="#132e65"></circle><circle r="5" cx="1007.85" cy="-107.36" fill="#132e65"></circle><circle r="5" cx="976.52" cy="54.76" fill="#132e65"></circle><circle r="5" cx="941.13" cy="210.05" fill="#132e65"></circle><circle r="5" cx="982.66" cy="356.32" fill="#132e65"></circle><circle r="5" cx="970.89" cy="525.37" fill="#132e65"></circle><circle r="5" cx="978.23" cy="640.94" fill="#132e65"></circle><circle r="5" cx="1143.02" cy="-94.3" fill="#132e65"></circle><circle r="5" cx="1134" cy="97.04" fill="#132e65"></circle><circle r="5" cx="1095.43" cy="255.96" fill="#132e65"></circle><circle r="5" cx="1103.83" cy="395.27" fill="#132e65"></circle><circle r="5" cx="1147.33" cy="706.92" fill="#132e65"></circle><circle r="5" cx="1249.83" cy="-54.96" fill="#132e65"></circle><circle r="5" cx="1283.86" cy="42.31" fill="#132e65"></circle><circle r="5" cx="1290.26" cy="197.12" fill="#132e65"></circle><circle r="5" cx="1242.53" cy="355.28" fill="#132e65"></circle><circle r="5" cx="1244.06" cy="487.54" fill="#132e65"></circle><circle r="5" cx="1278.67" cy="647.4" fill="#132e65"></circle><circle r="5" cx="1411.34" cy="-97.7" fill="#132e65"></circle><circle r="5" cx="1450.68" cy="100.83" fill="#132e65"></circle><circle r="5" cx="1448.18" cy="216.06" fill="#132e65"></circle><circle r="5" cx="1413.89" cy="402.02" fill="#132e65"></circle><circle r="5" cx="1443.9" cy="534.39" fill="#132e65"></circle><circle r="5" cx="1571.9" cy="-55.99" fill="#132e65"></circle><circle r="5" cx="1546.63" cy="82.96" fill="#132e65"></circle><circle r="5" cx="1607.74" cy="249.37" fill="#132e65"></circle><circle r="5" cx="1549.62" cy="392.91" fill="#132e65"></circle><circle r="5" cx="1569.64" cy="558.17" fill="#132e65"></circle><circle r="5" cx="1581.65" cy="704.37" fill="#132e65"></circle><path d="M82.23 499.2L82.23 499.2" stroke="hsl(228.5, 77.2%, 51.5%)" stroke-width="1.5"></path><path d="M82.23 499.2L-50.11 541.43" stroke="hsl(228.5, 77.2%, 51.5%)" stroke-width="1.5"></path><path d="M82.23 499.2L230.2 641.43" stroke="hsl(228.5, 77.2%, 51.5%)" stroke-width="1.5"></path><path d="M82.23 499.2L89.13 709.6" stroke="hsl(228.5, 77.2%, 51.5%)" stroke-width="1.5"></path><path d="M344.43 674.66L344.43 674.66" stroke="hsl(228.5, 77.2%, 51.5%)" stroke-width="1.5"></path><path d="M344.43 674.66L230.2 641.43" stroke="hsl(228.5, 77.2%, 51.5%)" stroke-width="1.5"></path><path d="M344.43 674.66L394.02 551.92" stroke="hsl(228.5, 77.2%, 51.5%)" stroke-width="1.5"></path><path d="M344.43 674.66L545.71 705.02" stroke="hsl(228.5, 77.2%, 51.5%)" stroke-width="1.5"></path><path d="M344.43 674.66L512.41 508.99" stroke="hsl(228.5, 77.2%, 51.5%)" stroke-width="1.5"></path><path d="M344.43 674.66L89.13 709.6" stroke="hsl(228.5, 77.2%, 51.5%)" stroke-width="1.5"></path><path d="M1269.7 242.05L1269.7 242.05" stroke="hsl(228.5, 77.2%, 51.5%)" stroke-width="1.5"></path><path d="M1269.7 242.05L1284.12 399.34" stroke="hsl(228.5, 77.2%, 51.5%)" stroke-width="1.5"></path><path d="M1269.7 242.05L1429.69 226.79" stroke="hsl(228.5, 77.2%, 51.5%)" stroke-width="1.5"></path><path d="M1269.7 242.05L1120.15 339.2" stroke="hsl(228.5, 77.2%, 51.5%)" stroke-width="1.5"></path><path d="M1393.94 371.81L1393.94 371.81" stroke="hsl(228.5, 77.2%, 51.5%)" stroke-width="1.5"></path><path d="M1393.94 371.81L1284.12 399.34" stroke="hsl(228.5, 77.2%, 51.5%)" stroke-width="1.5"></path><path d="M1393.94 371.81L1429.69 226.79" stroke="hsl(228.5, 77.2%, 51.5%)" stroke-width="1.5"></path><path d="M1393.94 371.81L1285.31 495.39" stroke="hsl(228.5, 77.2%, 51.5%)" stroke-width="1.5"></path><path d="M1393.94 371.81L1269.7 242.05" stroke="hsl(228.5, 77.2%, 51.5%)" stroke-width="1.5"></path><path d="M1453.22 644.71L1453.22 644.71" stroke="hsl(228.5, 77.2%, 51.5%)" stroke-width="1.5"></path><path d="M1453.22 644.71L1396.48 555.39" stroke="hsl(228.5, 77.2%, 51.5%)" stroke-width="1.5"></path><path d="M1453.22 644.71L1569.84 688.82" stroke="hsl(228.5, 77.2%, 51.5%)" stroke-width="1.5"></path><path d="M1453.22 644.71L1557.75 514.71" stroke="hsl(228.5, 77.2%, 51.5%)" stroke-width="1.5"></path><path d="M1453.22 644.71L1267.5 687.7" stroke="hsl(228.5, 77.2%, 51.5%)" stroke-width="1.5"></path><path d="M1453.22 644.71L1285.31 495.39" stroke="hsl(228.5, 77.2%, 51.5%)" stroke-width="1.5"></path><path d="M1600.84 350.96L1600.84 350.96" stroke="hsl(228.5, 77.2%, 51.5%)" stroke-width="1.5"></path><path d="M1600.84 350.96L1610.24 191.9" stroke="hsl(228.5, 77.2%, 51.5%)" stroke-width="1.5"></path><path d="M1600.84 350.96L1557.75 514.71" stroke="hsl(228.5, 77.2%, 51.5%)" stroke-width="1.5"></path><path d="M1600.84 350.96L1393.94 371.81" stroke="hsl(228.5, 77.2%, 51.5%)" stroke-width="1.5"></path><path d="M1600.84 350.96L1429.69 226.79" stroke="hsl(228.5, 77.2%, 51.5%)" stroke-width="1.5"></path><path d="M1600.84 350.96L1396.48 555.39" stroke="hsl(228.5, 77.2%, 51.5%)" stroke-width="1.5"></path><path d="M1600.84 350.96L1576.38 59.4" stroke="hsl(228.5, 77.2%, 51.5%)" stroke-width="1.5"></path><path d="M-50.11 541.43L-50.11 541.43" stroke="hsl(228.5, 77.2%, 51.5%)" stroke-width="1.5"></path><path d="M-50.11 541.43L89.13 709.6" stroke="hsl(228.5, 77.2%, 51.5%)" stroke-width="1.5"></path><path d="M-50.11 541.43L230.2 641.43" stroke="hsl(228.5, 77.2%, 51.5%)" stroke-width="1.5"></path><path d="M89.13 709.6L89.13 709.6" stroke="hsl(228.5, 77.2%, 51.5%)" stroke-width="1.5"></path><path d="M89.13 709.6L230.2 641.43" stroke="hsl(228.5, 77.2%, 51.5%)" stroke-width="1.5"></path><path d="M230.2 641.43L230.2 641.43" stroke="hsl(228.5, 77.2%, 51.5%)" stroke-width="1.5"></path><path d="M394.02 551.92L394.02 551.92" stroke="hsl(228.5, 77.2%, 51.5%)" stroke-width="1.5"></path><path d="M394.02 551.92L512.41 508.99" stroke="hsl(228.5, 77.2%, 51.5%)" stroke-width="1.5"></path><path d="M490.52 410.97L490.52 410.97" stroke="hsl(228.5, 77.2%, 51.5%)" stroke-width="1.5"></path><path d="M490.52 410.97L512.41 508.99" stroke="hsl(228.5, 77.2%, 51.5%)" stroke-width="1.5"></path><path d="M490.52 410.97L658.3 396.11" stroke="hsl(228.5, 77.2%, 51.5%)" stroke-width="1.5"></path><path d="M490.52 410.97L394.02 551.92" stroke="hsl(228.5, 77.2%, 51.5%)" stroke-width="1.5"></path><path d="M512.41 508.99L512.41 508.99" stroke="hsl(228.5, 77.2%, 51.5%)" stroke-width="1.5"></path><path d="M512.41 508.99L638.48 497" stroke="hsl(228.5, 77.2%, 51.5%)" stroke-width="1.5"></path><path d="M545.71 705.02L545.71 705.02" stroke="hsl(228.5, 77.2%, 51.5%)" stroke-width="1.5"></path><path d="M545.71 705.02L639.32 671.47" stroke="hsl(228.5, 77.2%, 51.5%)" stroke-width="1.5"></path><path d="M545.71 705.02L512.41 508.99" stroke="hsl(228.5, 77.2%, 51.5%)" stroke-width="1.5"></path><path d="M545.71 705.02L394.02 551.92" stroke="hsl(228.5, 77.2%, 51.5%)" stroke-width="1.5"></path><path d="M545.71 705.02L638.48 497" stroke="hsl(228.5, 77.2%, 51.5%)" stroke-width="1.5"></path><path d="M545.71 705.02L490.52 410.97" stroke="hsl(228.5, 77.2%, 51.5%)" stroke-width="1.5"></path><path d="M658.3 396.11L658.3 396.11" stroke="hsl(228.5, 77.2%, 51.5%)" stroke-width="1.5"></path><path d="M658.3 396.11L638.48 497" stroke="hsl(228.5, 77.2%, 51.5%)" stroke-width="1.5"></path><path d="M658.3 396.11L816.97 373.25" stroke="hsl(228.5, 77.2%, 51.5%)" stroke-width="1.5"></path><path d="M638.48 497L638.48 497" stroke="hsl(228.5, 77.2%, 51.5%)" stroke-width="1.5"></path><path d="M638.48 497L490.52 410.97" stroke="hsl(228.5, 77.2%, 51.5%)" stroke-width="1.5"></path><path d="M638.48 497L639.32 671.47" stroke="hsl(228.5, 77.2%, 51.5%)" stroke-width="1.5"></path><path d="M638.48 497L840.88 509.75" stroke="hsl(228.5, 77.2%, 51.5%)" stroke-width="1.5"></path><path d="M639.32 671.47L639.32 671.47" stroke="hsl(228.5, 77.2%, 51.5%)" stroke-width="1.5"></path><path d="M639.32 671.47L512.41 508.99" stroke="hsl(228.5, 77.2%, 51.5%)" stroke-width="1.5"></path><path d="M639.32 671.47L840.88 509.75" stroke="hsl(228.5, 77.2%, 51.5%)" stroke-width="1.5"></path><path d="M639.32 671.47L394.02 551.92" stroke="hsl(228.5, 77.2%, 51.5%)" stroke-width="1.5"></path><path d="M639.32 671.47L658.3 396.11" stroke="hsl(228.5, 77.2%, 51.5%)" stroke-width="1.5"></path><path d="M816.97 373.25L816.97 373.25" stroke="hsl(228.5, 77.2%, 51.5%)" stroke-width="1.5"></path><path d="M816.97 373.25L840.88 509.75" stroke="hsl(228.5, 77.2%, 51.5%)" stroke-width="1.5"></path><path d="M816.97 373.25L1007.25 377.01" stroke="hsl(228.5, 77.2%, 51.5%)" stroke-width="1.5"></path><path d="M816.97 373.25L638.48 497" stroke="hsl(228.5, 77.2%, 51.5%)" stroke-width="1.5"></path><path d="M816.97 373.25L1003.99 250.25" stroke="hsl(228.5, 77.2%, 51.5%)" stroke-width="1.5"></path><path d="M840.88 509.75L840.88 509.75" stroke="hsl(228.5, 77.2%, 51.5%)" stroke-width="1.5"></path><path d="M840.88 509.75L1007.91 539.78" stroke="hsl(228.5, 77.2%, 51.5%)" stroke-width="1.5"></path><path d="M1003.99 250.25L1003.99 250.25" stroke="hsl(228.5, 77.2%, 51.5%)" stroke-width="1.5"></path><path d="M1003.99 250.25L1007.25 377.01" stroke="hsl(228.5, 77.2%, 51.5%)" stroke-width="1.5"></path><path d="M1003.99 250.25L1120.15 339.2" stroke="hsl(228.5, 77.2%, 51.5%)" stroke-width="1.5"></path><path d="M1003.99 250.25L1141.42 87.35" stroke="hsl(228.5, 77.2%, 51.5%)" stroke-width="1.5"></path><path d="M1007.25 377.01L1007.25 377.01" stroke="hsl(228.5, 77.2%, 51.5%)" stroke-width="1.5"></path><path d="M1007.25 377.01L1120.15 339.2" stroke="hsl(228.5, 77.2%, 51.5%)" stroke-width="1.5"></path><path d="M1007.91 539.78L1007.91 539.78" stroke="hsl(228.5, 77.2%, 51.5%)" stroke-width="1.5"></path><path d="M1007.91 539.78L1117.71 528.53" stroke="hsl(228.5, 77.2%, 51.5%)" stroke-width="1.5"></path><path d="M1007.91 539.78L950.84 683.9" stroke="hsl(228.5, 77.2%, 51.5%)" stroke-width="1.5"></path><path d="M1007.91 539.78L1007.25 377.01" stroke="hsl(228.5, 77.2%, 51.5%)" stroke-width="1.5"></path><path d="M1007.91 539.78L1133.87 697.53" stroke="hsl(228.5, 77.2%, 51.5%)" stroke-width="1.5"></path><path d="M1007.91 539.78L1120.15 339.2" stroke="hsl(228.5, 77.2%, 51.5%)" stroke-width="1.5"></path><path d="M950.84 683.9L950.84 683.9" stroke="hsl(228.5, 77.2%, 51.5%)" stroke-width="1.5"></path><path d="M950.84 683.9L1133.87 697.53" stroke="hsl(228.5, 77.2%, 51.5%)" stroke-width="1.5"></path><path d="M950.84 683.9L840.88 509.75" stroke="hsl(228.5, 77.2%, 51.5%)" stroke-width="1.5"></path><path d="M1141.42 87.35L1141.42 87.35" stroke="hsl(228.5, 77.2%, 51.5%)" stroke-width="1.5"></path><path d="M1141.42 87.35L1251.08 60.51" stroke="hsl(228.5, 77.2%, 51.5%)" stroke-width="1.5"></path><path d="M1141.42 87.35L1269.7 242.05" stroke="hsl(228.5, 77.2%, 51.5%)" stroke-width="1.5"></path><path d="M1141.42 87.35L1272.22 -90.34" stroke="hsl(228.5, 77.2%, 51.5%)" stroke-width="1.5"></path><path d="M1141.42 87.35L1120.15 339.2" stroke="hsl(228.5, 77.2%, 51.5%)" stroke-width="1.5"></path><path d="M1120.15 339.2L1120.15 339.2" stroke="hsl(228.5, 77.2%, 51.5%)" stroke-width="1.5"></path><path d="M1120.15 339.2L1284.12 399.34" stroke="hsl(228.5, 77.2%, 51.5%)" stroke-width="1.5"></path><path d="M1117.71 528.53L1117.71 528.53" stroke="hsl(228.5, 77.2%, 51.5%)" stroke-width="1.5"></path><path d="M1117.71 528.53L1133.87 697.53" stroke="hsl(228.5, 77.2%, 51.5%)" stroke-width="1.5"></path><path d="M1117.71 528.53L1285.31 495.39" stroke="hsl(228.5, 77.2%, 51.5%)" stroke-width="1.5"></path><path d="M1117.71 528.53L1007.25 377.01" stroke="hsl(228.5, 77.2%, 51.5%)" stroke-width="1.5"></path><path d="M1133.87 697.53L1133.87 697.53" stroke="hsl(228.5, 77.2%, 51.5%)" stroke-width="1.5"></path><path d="M1133.87 697.53L1267.5 687.7" stroke="hsl(228.5, 77.2%, 51.5%)" stroke-width="1.5"></path><path d="M1133.87 697.53L1285.31 495.39" stroke="hsl(228.5, 77.2%, 51.5%)" stroke-width="1.5"></path><path d="M1133.87 697.53L1396.48 555.39" stroke="hsl(228.5, 77.2%, 51.5%)" stroke-width="1.5"></path><path d="M1272.22 -90.34L1272.22 -90.34" stroke="hsl(228.5, 77.2%, 51.5%)" stroke-width="1.5"></path><path d="M1272.22 -90.34L1404.3 -73.2" stroke="hsl(228.5, 77.2%, 51.5%)" stroke-width="1.5"></path><path d="M1272.22 -90.34L1251.08 60.51" stroke="hsl(228.5, 77.2%, 51.5%)" stroke-width="1.5"></path><path d="M1272.22 -90.34L1579.78 -80.85" stroke="hsl(228.5, 77.2%, 51.5%)" stroke-width="1.5"></path><path d="M1272.22 -90.34L1269.7 242.05" stroke="hsl(228.5, 77.2%, 51.5%)" stroke-width="1.5"></path><path d="M1251.08 60.51L1251.08 60.51" stroke="hsl(228.5, 77.2%, 51.5%)" stroke-width="1.5"></path><path d="M1251.08 60.51L1269.7 242.05" stroke="hsl(228.5, 77.2%, 51.5%)" stroke-width="1.5"></path><path d="M1251.08 60.51L1404.3 -73.2" stroke="hsl(228.5, 77.2%, 51.5%)" stroke-width="1.5"></path><path d="M1251.08 60.51L1429.69 226.79" stroke="hsl(228.5, 77.2%, 51.5%)" stroke-width="1.5"></path><path d="M1251.08 60.51L1120.15 339.2" stroke="hsl(228.5, 77.2%, 51.5%)" stroke-width="1.5"></path><path d="M1284.12 399.34L1284.12 399.34" stroke="hsl(228.5, 77.2%, 51.5%)" stroke-width="1.5"></path><path d="M1284.12 399.34L1285.31 495.39" stroke="hsl(228.5, 77.2%, 51.5%)" stroke-width="1.5"></path><path d="M1285.31 495.39L1285.31 495.39" stroke="hsl(228.5, 77.2%, 51.5%)" stroke-width="1.5"></path><path d="M1285.31 495.39L1396.48 555.39" stroke="hsl(228.5, 77.2%, 51.5%)" stroke-width="1.5"></path><path d="M1267.5 687.7L1267.5 687.7" stroke="hsl(228.5, 77.2%, 51.5%)" stroke-width="1.5"></path><path d="M1267.5 687.7L1396.48 555.39" stroke="hsl(228.5, 77.2%, 51.5%)" stroke-width="1.5"></path><path d="M1404.3 -73.2L1404.3 -73.2" stroke="hsl(228.5, 77.2%, 51.5%)" stroke-width="1.5"></path><path d="M1404.3 -73.2L1579.78 -80.85" stroke="hsl(228.5, 77.2%, 51.5%)" stroke-width="1.5"></path><path d="M1404.3 -73.2L1576.38 59.4" stroke="hsl(228.5, 77.2%, 51.5%)" stroke-width="1.5"></path><path d="M1404.3 -73.2L1429.69 226.79" stroke="hsl(228.5, 77.2%, 51.5%)" stroke-width="1.5"></path><path d="M1429.69 226.79L1429.69 226.79" stroke="hsl(228.5, 77.2%, 51.5%)" stroke-width="1.5"></path><path d="M1429.69 226.79L1610.24 191.9" stroke="hsl(228.5, 77.2%, 51.5%)" stroke-width="1.5"></path><path d="M1396.48 555.39L1396.48 555.39" stroke="hsl(228.5, 77.2%, 51.5%)" stroke-width="1.5"></path><path d="M1579.78 -80.85L1579.78 -80.85" stroke="hsl(228.5, 77.2%, 51.5%)" stroke-width="1.5"></path><path d="M1579.78 -80.85L1576.38 59.4" stroke="hsl(228.5, 77.2%, 51.5%)" stroke-width="1.5"></path><path d="M1579.78 -80.85L1610.24 191.9" stroke="hsl(228.5, 77.2%, 51.5%)" stroke-width="1.5"></path><path d="M1579.78 -80.85L1429.69 226.79" stroke="hsl(228.5, 77.2%, 51.5%)" stroke-width="1.5"></path><path d="M1579.78 -80.85L1251.08 60.51" stroke="hsl(228.5, 77.2%, 51.5%)" stroke-width="1.5"></path><path d="M1576.38 59.4L1576.38 59.4" stroke="hsl(228.5, 77.2%, 51.5%)" stroke-width="1.5"></path><path d="M1576.38 59.4L1610.24 191.9" stroke="hsl(228.5, 77.2%, 51.5%)" stroke-width="1.5"></path><path d="M1610.24 191.9L1610.24 191.9" stroke="hsl(228.5, 77.2%, 51.5%)" stroke-width="1.5"></path><path d="M1610.24 191.9L1393.94 371.81" stroke="hsl(228.5, 77.2%, 51.5%)" stroke-width="1.5"></path><path d="M1610.24 191.9L1557.75 514.71" stroke="hsl(228.5, 77.2%, 51.5%)" stroke-width="1.5"></path><path d="M1557.75 514.71L1557.75 514.71" stroke="hsl(228.5, 77.2%, 51.5%)" stroke-width="1.5"></path><path d="M1557.75 514.71L1396.48 555.39" stroke="hsl(228.5, 77.2%, 51.5%)" stroke-width="1.5"></path><path d="M1557.75 514.71L1569.84 688.82" stroke="hsl(228.5, 77.2%, 51.5%)" stroke-width="1.5"></path><path d="M1569.84 688.82L1569.84 688.82" stroke="hsl(228.5, 77.2%, 51.5%)" stroke-width="1.5"></path><path d="M1569.84 688.82L1396.48 555.39" stroke="hsl(228.5, 77.2%, 51.5%)" stroke-width="1.5"></path><path d="M1569.84 688.82L1267.5 687.7" stroke="hsl(228.5, 77.2%, 51.5%)" stroke-width="1.5"></path><path d="M1569.84 688.82L1600.84 350.96" stroke="hsl(228.5, 77.2%, 51.5%)" stroke-width="1.5"></path><path d="M1569.84 688.82L1285.31 495.39" stroke="hsl(228.5, 77.2%, 51.5%)" stroke-width="1.5"></path><circle r="25" cx="82.23" cy="499.2" fill="url(#SvgjsRadialGradient1001)"></circle><circle r="25" cx="344.43" cy="674.66" fill="url(#SvgjsRadialGradient1001)"></circle><circle r="25" cx="1269.7" cy="242.05" fill="url(#SvgjsRadialGradient1001)"></circle><circle r="25" cx="1393.94" cy="371.81" fill="url(#SvgjsRadialGradient1001)"></circle><circle r="25" cx="1453.22" cy="644.71" fill="url(#SvgjsRadialGradient1001)"></circle><circle r="25" cx="1600.84" cy="350.96" fill="url(#SvgjsRadialGradient1001)"></circle><circle r="5" cx="-50.11" cy="541.43" fill="#8b9ad9"></circle><circle r="5" cx="89.13" cy="709.6" fill="#8b9ad9"></circle><circle r="5" cx="230.2" cy="641.43" fill="#8b9ad9"></circle><circle r="5" cx="394.02" cy="551.92" fill="#8b9ad9"></circle><circle r="5" cx="490.52" cy="410.97" fill="#8b9ad9"></circle><circle r="5" cx="512.41" cy="508.99" fill="#8b9ad9"></circle><circle r="5" cx="545.71" cy="705.02" fill="#8b9ad9"></circle><circle r="5" cx="658.3" cy="396.11" fill="#8b9ad9"></circle><circle r="5" cx="638.48" cy="497" fill="#8b9ad9"></circle><circle r="5" cx="639.32" cy="671.47" fill="#8b9ad9"></circle><circle r="5" cx="816.97" cy="373.25" fill="#8b9ad9"></circle><circle r="5" cx="840.88" cy="509.75" fill="#8b9ad9"></circle><circle r="5" cx="1003.99" cy="250.25" fill="#8b9ad9"></circle><circle r="5" cx="1007.25" cy="377.01" fill="#8b9ad9"></circle><circle r="5" cx="1007.91" cy="539.78" fill="#8b9ad9"></circle><circle r="5" cx="950.84" cy="683.9" fill="#8b9ad9"></circle><circle r="5" cx="1141.42" cy="87.35" fill="#8b9ad9"></circle><circle r="5" cx="1120.15" cy="339.2" fill="#8b9ad9"></circle><circle r="5" cx="1117.71" cy="528.53" fill="#8b9ad9"></circle><circle r="5" cx="1133.87" cy="697.53" fill="#8b9ad9"></circle><circle r="5" cx="1272.22" cy="-90.34" fill="#8b9ad9"></circle><circle r="5" cx="1251.08" cy="60.51" fill="#8b9ad9"></circle><circle r="5" cx="1284.12" cy="399.34" fill="#8b9ad9"></circle><circle r="5" cx="1285.31" cy="495.39" fill="#8b9ad9"></circle><circle r="5" cx="1267.5" cy="687.7" fill="#8b9ad9"></circle><circle r="5" cx="1404.3" cy="-73.2" fill="#8b9ad9"></circle><circle r="5" cx="1429.69" cy="226.79" fill="#8b9ad9"></circle><circle r="5" cx="1396.48" cy="555.39" fill="#8b9ad9"></circle><circle r="5" cx="1579.78" cy="-80.85" fill="#8b9ad9"></circle><circle r="5" cx="1576.38" cy="59.4" fill="#8b9ad9"></circle><circle r="5" cx="1610.24" cy="191.9" fill="#8b9ad9"></circle><circle r="5" cx="1557.75" cy="514.71" fill="#8b9ad9"></circle><circle r="5" cx="1569.84" cy="688.82" fill="#8b9ad9"></circle></g><defs><mask id="SvgjsMask1000"><rect width="1440" height="560" fill="#ffffff"></rect></mask><radialGradient id="SvgjsRadialGradient1001"><stop stop-color="#ffffff" offset="0.1"></stop><stop stop-color="#1735b3" offset="0.2"></stop><stop stop-color="rgba(23, 53, 179, 0)" offset="1"></stop></radialGradient></defs></svg>